<?xml version="1.0" ?><svg data-name="Capa 1" id="Capa_1" viewBox="0 0 20 19.84" xmlns="http://www.w3.org/2000/svg"><path d="M15.05,4a.8.8,0,0,0-.88.16l-.5.47a.37.37,0,0,1-.49,0l-1.11-.95A.81.81,0,0,0,11,3.8l-.69.76a.36.36,0,0,1-.27.12h0a.36.36,0,0,1-.26-.11L9,3.81a.79.79,0,0,0-.58-.25h0a.81.81,0,0,0-.57.23L7,4.65a.36.36,0,0,1-.49,0L5.8,4.08A.81.81,0,0,0,4.93,4a.8.8,0,0,0-.47.74v9.85A1.75,1.75,0,0,0,6.21,16.3h7.58a1.75,1.75,0,0,0,1.75-1.75V4.77A.8.8,0,0,0,15.05,4Zm-.26,10.52a1,1,0,0,1-1,1H6.21a1,1,0,0,1-1-1V4.7l.1,0L6,5.23A1.11,1.11,0,0,0,7.5,5.18l.95-.85.73.76a1.15,1.15,0,0,0,.81.34h0a1.17,1.17,0,0,0,.81-.36l.78-.77,1.11,1a1.12,1.12,0,0,0,1.5,0l.56-.49a.07.07,0,0,1,0,.06Z"/><path d="M11.76,8.6,9.42,11.53l-.73-.61a.38.38,0,1,0-.48.58l.76.63a.7.7,0,0,0,.41.12A.74.74,0,0,0,9.94,12l2.4-2.92a.37.37,0,1,0-.58-.47Z"/></svg>