<?xml version="1.0" ?><svg data-name="Capa 1" id="Capa_1" viewBox="0 0 20 19.84" xmlns="http://www.w3.org/2000/svg"><path d="M12.33,9.27l-.07-1.66a.87.87,0,0,0-.87-.82h-.63V6A2.08,2.08,0,1,0,6.6,6v.81H5.94a.87.87,0,0,0-.87.82l-.39,6.87a1.43,1.43,0,0,0,1.43,1.44h5.11l.15,0A3.81,3.81,0,0,0,12,16a3.35,3.35,0,0,0,.36-6.68ZM7.35,6A1.33,1.33,0,0,1,10,6v.81H7.35ZM6.12,15.17h0a.67.67,0,0,1-.48-.2.72.72,0,0,1-.2-.53l.39-6.78a.12.12,0,0,1,.12-.12H6.6v.34a.38.38,0,1,0,.75,0V7.54H10v.34a.38.38,0,1,0,.75,0V7.54h.63a.11.11,0,0,1,.12.11l.07,1.63a3.32,3.32,0,0,0-1.73,5.89Zm5.85,0a2.6,2.6,0,0,1-.09-5.2.18.18,0,0,0,.1,0h.07A2.6,2.6,0,0,1,12,15.2Z"/><path d="M12.87,12.57a.67.67,0,1,0,.66.66A.67.67,0,0,0,12.87,12.57Zm0,.89a.23.23,0,1,1,0-.45.22.22,0,0,1,.22.22A.22.22,0,0,1,12.87,13.46Z"/><path d="M11.83,12a.66.66,0,0,0-.66-.67.67.67,0,0,0-.67.67.66.66,0,0,0,.67.66A.65.65,0,0,0,11.83,12ZM11,12a.22.22,0,1,1,.44,0A.22.22,0,0,1,11,12Z"/><path d="M13,11.32a.22.22,0,0,0-.31,0L11,13.54a.23.23,0,0,0,0,.31.24.24,0,0,0,.14.05.21.21,0,0,0,.17-.09L13,11.63A.22.22,0,0,0,13,11.32Z"/></svg>